<?xml version="1.0" encoding="utf-8"?>
<!-- Generator: Adobe Illustrator 26.5.0, SVG Export Plug-In . SVG Version: 6.00 Build 0)  -->
<svg version="1.1"
	 id="svg2" xmlns:svg="http://www.w3.org/2000/svg" xmlns:rdf="http://www.w3.org/1999/02/22-rdf-syntax-ns#" xmlns:dc="http://purl.org/dc/elements/1.1/" xmlns:inkscape="http://www.inkscape.org/namespaces/inkscape" xmlns:sodipodi="http://sodipodi.sourceforge.net/DTD/sodipodi-0.dtd" xmlns:cc="http://creativecommons.org/ns#" inkscape:version="0.48.2 r9819" sodipodi:docname="Airdrop - Copie.svg"
	 xmlns="http://www.w3.org/2000/svg" xmlns:xlink="http://www.w3.org/1999/xlink" x="0px" y="0px" viewBox="0 0 602 602"
	 style="enable-background:new 0 0 602 602;" xml:space="preserve">
<style type="text/css">
	.st0{fill:url(#rect2996_00000003793230922538041320000002222182248556098708_);}
	.st1{fill:#FFFFFF;}
</style>
<sodipodi:namedview  bordercolor="#666666" borderopacity="1.0" id="base" inkscape:current-layer="layer1" inkscape:cx="-298.61733" inkscape:cy="36.893627" inkscape:document-units="px" inkscape:pageopacity="0.0" inkscape:pageshadow="2" inkscape:window-height="706" inkscape:window-maximized="1" inkscape:window-width="1366" inkscape:window-x="-8" inkscape:window-y="-8" inkscape:zoom="0.37410882" pagecolor="#ffffff" showgrid="false">
	</sodipodi:namedview>
<g id="layer1" transform="translate(0,-450.36218)" inkscape:groupmode="layer" inkscape:label="Calque 1">
	<g id="g3062" transform="matrix(6.6666666,0,0,6.6666666,-5.6668106,-5957.7191)">
		
			<linearGradient id="rect2996_00000028313472278040881840000016236557098089758893_" gradientUnits="userSpaceOnUse" x1="45.9559" y1="961.7075" x2="46.5399" y2="1552.0558" gradientTransform="matrix(1 0 0 -1 0 2012.7078)">
			<stop  offset="0" style="stop-color:#CBCBCB"/>
			<stop  offset="1" style="stop-color:#787878"/>
		</linearGradient>
		
			<path id="rect2996" inkscape:connector-curvature="0" style="fill:url(#rect2996_00000028313472278040881840000016236557098089758893_);" d="
			M21.65,961.36h48.69c11.44,0,20.65,9.21,20.65,20.65v48.69c0,11.44-9.21,20.65-20.65,20.65H21.65c-11.44,0-20.65-9.21-20.65-20.65
			v-48.69C1,970.57,10.21,961.36,21.65,961.36L21.65,961.36z"/>
		
			<path id="rect3027" inkscape:connector-curvature="0" sodipodi:nodetypes="sccccccccaaaccccsscsscccccccccccccccsscccccsscccccaaacc" class="st1" d="
			M20.72,986.96c-0.47,0-0.92,0.08-1.34,0.25l8.47,8.72l8.56,8.88l0.16,0.19l0.25,0.25l0.25,0.25l0.5,0.53l7.34,7.53
			c0.12,0.08,0.48,0.4,0.75,0.54c0.36,0.18,0.74,0.34,1.14,0.36c0.43,0.02,0.87-0.11,1.26-0.3c0.29-0.14,0.42-0.34,0.76-0.6
			l8.5-8.78l8.59-8.84l8.28-8.53c-0.53-0.29-1.12-0.44-1.75-0.44H20.72z M18.12,988.02c-0.9,0.86-1.47,2.14-1.47,3.59v28.62
			c0,1.18,0.38,2.24,1,3.06l1.19-1.12l8.84-8.59l7.84-7.59l-0.16-0.19l-8.59-8.84l-8.59-8.88L18.12,988.02z M75.31,988.3l-8.38,8.66
			l-8.56,8.84l-0.16,0.16l8.16,7.91l8.84,8.59l0.53,0.5c0.48-0.76,0.75-1.71,0.75-2.72v-28.62C76.5,990.32,76.05,989.14,75.31,988.3
			z M36.53,1007.02l-7.81,7.59l-8.88,8.59l-1.12,1.09c0.59,0.38,1.27,0.62,2,0.62h51.72c0.88,0,1.68-0.34,2.34-0.88l-0.56-0.56
			l-8.88-8.59l-8.16-7.88l-7.34,7.56c-0.4,0.26-0.66,0.56-1.05,0.74c-0.62,0.29-1.31,0.53-2,0.52c-0.69-0.01-1.37-0.28-1.99-0.59
			c-0.31-0.15-0.48-0.3-0.84-0.61L36.53,1007.02z"/>
	</g>
</g>
</svg>
